<?xml version="1.0" encoding="UTF-8" ?>
<!DOCTYPE svg PUBLIC "-//W3C//DTD SVG 1.1//EN" "http://www.w3.org/Graphics/SVG/1.1/DTD/svg11.dtd">
<svg preserveAspectRatio="xMinYMin" width="1000pt" height="1000pt" viewBox="0 0 1000 1000" version="1.1" xmlns="http://www.w3.org/2000/svg">
    <path fill="#0084c2" d=" M 18.15 0.00 L 568.31 0.00 C 575.07 1.26 581.15 5.77 583.89 12.14 C 586.35 17.06 585.95 22.68 585.94 28.01 C 585.95 57.41 585.91 86.80 585.96 116.20 C 636.97 116.22 687.99 116.25 739.00 116.18 C 743.00 99.52 751.96 84.20 764.01 72.07 C 777.77 58.46 795.82 49.25 814.93 46.16 C 834.52 42.92 855.12 46.11 872.76 55.22 C 904.03 70.74 924.81 105.07 923.82 140.00 C 923.85 174.45 902.66 207.59 871.82 222.69 C 863.03 227.25 853.40 229.74 843.74 231.62 C 843.76 286.84 843.73 342.07 843.75 397.30 C 862.48 400.30 880.46 408.64 894.17 421.85 C 904.23 431.26 912.21 442.87 917.27 455.69 C 925.93 477.22 926.07 502.02 917.71 523.67 C 909.54 545.06 893.35 563.33 872.86 573.64 C 863.77 578.40 853.86 581.43 843.76 583.07 C 843.74 639.67 843.73 696.28 843.76 752.88 C 867.04 756.45 889.04 768.80 903.53 787.47 C 913.28 799.69 919.89 814.38 922.53 829.79 C 925.85 849.20 922.99 869.64 914.15 887.26 C 906.40 902.89 894.19 916.28 879.39 925.51 C 860.69 937.16 837.74 941.82 815.99 938.39 C 795.92 935.52 776.92 925.73 762.94 911.06 C 752.39 900.50 744.78 887.22 740.23 873.05 C 688.80 873.05 637.38 873.03 585.95 873.06 C 585.92 906.73 585.94 940.39 585.94 974.06 C 586.16 982.24 581.61 990.62 574.07 994.13 C 569.75 996.41 564.72 996.12 559.99 996.10 C 379.98 996.07 199.97 996.13 19.96 996.07 C 9.58 996.11 1.15 987.03 0.00 977.06 L 0.00 722.52 C 0.95 712.46 9.45 703.01 19.94 703.14 C 199.96 703.11 379.99 703.14 560.01 703.12 C 564.41 703.17 569.05 702.68 573.17 704.61 C 581.07 707.94 586.14 716.45 585.93 724.94 C 585.95 756.40 585.90 787.86 585.96 819.32 C 637.31 819.35 688.66 819.37 740.00 819.31 C 747.10 795.25 764.14 774.20 786.50 762.71 C 795.81 757.78 805.96 754.51 816.37 752.94 C 816.44 696.31 816.41 639.68 816.39 583.06 C 799.85 580.51 783.97 573.62 770.99 563.03 C 757.54 552.29 747.46 537.59 741.52 521.49 C 689.66 521.50 637.80 521.44 585.95 521.52 C 585.89 555.70 586.00 589.88 585.89 624.05 C 585.71 634.54 576.79 644.65 566.00 644.53 C 383.98 644.52 201.95 644.53 19.93 644.53 C 9.45 644.65 0.93 635.15 0.00 625.09 L 0.00 370.63 C 1.08 362.95 5.95 355.55 13.41 352.83 C 17.05 351.17 21.10 351.58 24.98 351.56 C 205.31 351.56 385.64 351.57 565.97 351.55 C 577.12 351.47 586.18 362.10 585.92 372.95 C 585.97 404.55 585.90 436.16 585.95 467.76 C 636.97 467.75 688.00 467.87 739.02 467.70 C 746.60 435.96 772.11 409.30 803.47 400.25 C 807.70 398.95 812.08 398.25 816.41 397.29 C 816.42 342.07 816.39 286.84 816.42 231.61 C 801.43 229.04 786.83 223.52 774.63 214.32 C 759.66 203.23 747.89 187.73 741.71 170.12 C 726.47 169.65 711.21 170.05 695.96 169.92 C 659.29 169.93 622.62 169.89 585.95 169.94 C 585.89 203.98 585.99 238.03 585.91 272.08 C 585.93 282.71 577.00 293.01 566.06 292.94 C 384.00 292.97 201.94 292.97 19.88 292.94 C 9.43 293.01 1.00 283.69 0.00 273.66 L 0.00 19.46 C 0.90 9.88 8.39 1.15 18.15 0.00 Z" />
</svg>
